<svg xmlns="http://www.w3.org/2000/svg" width="152" height="111" viewBox="0 0 152 111" fill="none">
<rect width="111" height="111" fill="#1F1E1E"/>
<path d="M30.1772 54.6989H20.1102V37.7793H20.0853V37.7544H16.5469V55.1225H30.1772V54.6989Z" fill="white"/>
<path d="M33.1721 55.1225H46.8523V54.6989H36.7105V46.2765H44.6345V45.8279H36.7105V38.178H46.8523V37.7544H33.1721V55.1225Z" fill="white"/>
<path d="M53.3844 55.1225V38.178C55.5523 38.178 62.2304 39.0003 62.7288 48.6686V55.1225H66.2672V37.7544H62.7288V45.5538C61.6573 40.919 58.2684 37.7544 53.3844 37.7544H49.846V55.1225H53.3844Z" fill="white"/>
<path d="M73.5381 55.1225V38.178C75.706 38.178 82.3841 39.0003 82.8825 48.6686V55.1225H86.4209V37.7544H82.8825V45.5538C81.811 40.919 78.4221 37.7544 73.5381 37.7544H69.9997V55.1225H73.5381Z" fill="white"/>
<path d="M90.1534 55.1225H93.6918V37.7544H90.1534V55.1225Z" fill="white"/>
<rect x="61" y="69" width="91" height="32" fill="#BC3324"/>
<path d="M82.248 93.6328H82.6558L84.8758 87.1766H91.3319L93.8464 93.6328H97.2217L91.1054 77.8436H87.6848L82.248 93.6328ZM87.9113 78.3419L91.196 86.7915H85.0117L87.9113 78.3419Z" fill="white"/>
<path d="M100.16 77.8436V93.6328H103.377V88.1734H107.205L110.897 93.6101H114.567L110.671 87.8336C112.936 87.2446 114.658 85.8401 114.658 82.6913C114.658 78.7497 111.781 77.5038 108.428 77.5038C104.894 77.5038 103.875 80.1542 103.377 83.0991V77.8436H100.16ZM104.26 81.1509C104.872 78.9309 106.457 78.0248 107.862 77.9115C111.237 77.5944 111.373 79.7464 111.373 82.6913C111.373 87.4711 108.836 87.7883 106.661 87.7883H103.377C103.377 87.7883 103.286 84.6622 104.26 81.1509Z" fill="white"/>
<path d="M122.39 78.2287L122.413 93.6328H125.63V78.2287H132.131V77.8436H115.889V78.2287H122.39Z" fill="white"/>
</svg>
